<svg width="663" height="220" viewBox="0 0 663 220" fill="none" xmlns="http://www.w3.org/2000/svg">
<path d="M372 93C372 70.9086 354.091 53 332 53C309.909 53 292 70.9086 292 93L332 77L372 93Z" fill="url(#paint0_linear_133_556)"/>
<path d="M292 93C292 115.091 309.909 133 332 133C354.091 133 372 115.091 372 93L332 109L292 93Z" fill="url(#paint1_linear_133_556)"/>
<path d="M332 77L292 93L332 109L372 93L332 77Z" fill="url(#paint2_linear_133_556)"/>
<path d="M266.568 178.552C264.776 180.568 262.6 181.576 260.04 181.576C258.12 181.576 256.392 181.112 254.856 180.184C253.32 179.224 252.088 177.832 251.16 176.008C250.264 174.152 249.816 171.944 249.816 169.384C249.816 166.888 250.264 164.728 251.16 162.904C252.056 161.08 253.272 159.688 254.808 158.728C256.376 157.736 258.12 157.24 260.04 157.24C262.728 157.24 264.904 158.248 266.568 160.264V148.984H275.208V181H266.568V178.552ZM266.568 166.408C266.184 165.928 265.64 165.56 264.936 165.304C264.264 165.016 263.608 164.872 262.968 164.872C261.752 164.872 260.728 165.288 259.896 166.12C259.064 166.92 258.648 168.008 258.648 169.384C258.648 170.792 259.064 171.912 259.896 172.744C260.728 173.544 261.752 173.944 262.968 173.944C263.576 173.944 264.232 173.8 264.936 173.512C265.64 173.224 266.184 172.84 266.568 172.36V166.408ZM279.994 157.816H288.634V160.456C289.37 159.592 290.41 158.84 291.754 158.2C293.13 157.56 294.458 157.24 295.738 157.24V165.496C295.258 165.336 294.602 165.256 293.77 165.256C292.746 165.256 291.738 165.4 290.746 165.688C289.786 165.944 289.082 166.344 288.634 166.888V181H279.994V157.816ZM297.113 169.384C297.113 167.144 297.641 165.096 298.697 163.24C299.785 161.384 301.289 159.928 303.209 158.872C305.129 157.784 307.305 157.24 309.737 157.24C312.009 157.24 314.057 157.768 315.881 158.824C317.737 159.88 319.177 161.4 320.201 163.384C321.257 165.336 321.785 167.64 321.785 170.296V172.072H306.041C306.297 172.904 306.857 173.608 307.721 174.184C308.617 174.728 309.753 175 311.129 175C312.089 175 313.049 174.856 314.009 174.568C315.001 174.248 315.785 173.848 316.361 173.368L319.913 178.696C318.825 179.624 317.369 180.344 315.545 180.856C313.721 181.336 311.881 181.576 310.025 181.576C307.593 181.576 305.401 181.096 303.449 180.136C301.497 179.144 299.945 177.736 298.793 175.912C297.673 174.056 297.113 171.88 297.113 169.384ZM309.737 163.816C308.585 163.816 307.705 164.104 307.097 164.68C306.521 165.224 306.137 165.864 305.945 166.6H313.577C313.417 165.896 313.033 165.256 312.425 164.68C311.849 164.104 310.953 163.816 309.737 163.816ZM338.151 178.792C337.511 179.624 336.535 180.296 335.223 180.808C333.943 181.32 332.583 181.576 331.143 181.576C329.895 181.576 328.663 181.304 327.447 180.76C326.231 180.184 325.207 179.32 324.375 178.168C323.575 177.016 323.175 175.608 323.175 173.944C323.175 171.352 323.959 169.512 325.527 168.424C327.127 167.336 328.999 166.792 331.143 166.792C332.679 166.792 334.071 167.016 335.319 167.464C336.599 167.912 337.543 168.536 338.151 169.336V166.696C338.151 165.864 337.767 165.176 336.999 164.632C336.263 164.088 335.207 163.816 333.831 163.816C332.743 163.816 331.623 164.024 330.471 164.44C329.351 164.824 328.327 165.368 327.399 166.072L324.471 160.744C325.943 159.56 327.655 158.68 329.607 158.104C331.591 157.528 333.527 157.24 335.415 157.24C338.743 157.24 341.463 157.976 343.575 159.448C345.719 160.92 346.791 163.432 346.791 166.984V181H338.151V178.792ZM338.151 173.416C337.863 173.032 337.399 172.728 336.759 172.504C336.119 172.28 335.447 172.168 334.743 172.168C333.911 172.168 333.191 172.328 332.583 172.648C332.007 172.936 331.719 173.416 331.719 174.088C331.719 174.76 332.007 175.24 332.583 175.528C333.191 175.816 333.911 175.96 334.743 175.96C335.447 175.96 336.119 175.848 336.759 175.624C337.399 175.4 337.863 175.096 338.151 174.712V173.416ZM381.188 167.464C381.188 166.696 380.964 166.072 380.516 165.592C380.1 165.112 379.444 164.872 378.548 164.872C377.716 164.872 377.028 165.048 376.484 165.4C375.94 165.752 375.444 166.184 374.996 166.696V181H366.356V167.464C366.356 166.696 366.148 166.072 365.732 165.592C365.316 165.112 364.644 164.872 363.716 164.872C362.884 164.872 362.196 165.048 361.652 165.4C361.14 165.752 360.66 166.184 360.212 166.696V181H351.572V157.816H360.212V160.456C360.82 159.688 361.828 158.968 363.236 158.296C364.644 157.592 366.196 157.24 367.892 157.24C371.348 157.24 373.572 158.6 374.564 161.32C375.3 160.2 376.388 159.24 377.828 158.44C379.3 157.64 380.916 157.24 382.676 157.24C384.884 157.24 386.628 157.816 387.908 158.968C389.188 160.12 389.828 161.864 389.828 164.2V181H381.188V167.464ZM396.138 172.216C397.066 172.952 398.378 173.624 400.074 174.232C401.77 174.84 403.242 175.144 404.49 175.144C406.026 175.144 406.794 174.808 406.794 174.136C406.794 173.816 406.538 173.592 406.026 173.464C405.514 173.304 404.682 173.144 403.53 172.984C401.642 172.728 400.026 172.408 398.682 172.024C397.37 171.608 396.202 170.856 395.178 169.768C394.154 168.68 393.642 167.144 393.642 165.16C393.642 163.752 394.042 162.44 394.842 161.224C395.674 160.008 396.874 159.048 398.442 158.344C400.01 157.608 401.866 157.24 404.01 157.24C405.898 157.24 407.69 157.512 409.386 158.056C411.082 158.568 412.634 159.288 414.042 160.216L410.874 165.832C410.074 165.192 409.05 164.632 407.802 164.152C406.554 163.672 405.306 163.432 404.058 163.432C403.45 163.432 402.938 163.528 402.522 163.72C402.106 163.912 401.898 164.136 401.898 164.392C401.898 164.68 402.074 164.888 402.426 165.016C402.778 165.112 403.594 165.256 404.874 165.448C406.794 165.736 408.442 166.088 409.818 166.504C411.194 166.92 412.41 167.704 413.466 168.856C414.522 169.976 415.05 171.56 415.05 173.608C415.05 175.144 414.602 176.52 413.706 177.736C412.842 178.92 411.578 179.864 409.914 180.568C408.25 181.24 406.298 181.576 404.058 181.576C401.946 181.576 399.834 181.256 397.722 180.616C395.61 179.944 393.93 179.08 392.682 178.024L396.138 172.216Z" fill="white"/>
<path d="M418.364 146.108H416.216V143.996H422.924V146.108H420.788V152H418.364V146.108ZM430.865 147.188L429.077 152H427.997L426.209 147.188V152H423.785V143.996H427.133L428.537 147.836L429.941 143.996H433.289V152H430.865V147.188Z" fill="white"/>
<defs>
<linearGradient id="paint0_linear_133_556" x1="292" y1="73" x2="372" y2="73" gradientUnits="userSpaceOnUse">
<stop stop-color="#163BF3"/>
<stop offset="1" stop-color="#0C114D"/>
</linearGradient>
<linearGradient id="paint1_linear_133_556" x1="372" y1="113" x2="292" y2="113" gradientUnits="userSpaceOnUse">
<stop stop-color="#C98600"/>
<stop offset="1" stop-color="#FBBE2E"/>
</linearGradient>
<linearGradient id="paint2_linear_133_556" x1="332" y1="53" x2="332" y2="133" gradientUnits="userSpaceOnUse">
<stop stop-color="#C9A400"/>
<stop offset="1" stop-color="#5B3100"/>
</linearGradient>
</defs>
</svg>
