<svg width="663" height="220" viewBox="0 0 663 220" fill="none" xmlns="http://www.w3.org/2000/svg">
<path d="M372 93C372 70.9086 354.091 53 332 53C309.909 53 292 70.9086 292 93L332 77L372 93Z" fill="url(#paint0_linear_114_59)"/>
<path d="M292 93C292 115.091 309.909 133 332 133C354.091 133 372 115.091 372 93L332 109L292 93Z" fill="url(#paint1_linear_114_59)"/>
<path d="M332 77L292 93L332 109L372 93L332 77Z" fill="url(#paint2_linear_114_59)"/>
<path d="M281.176 169.164C279.832 170.676 278.2 171.432 276.28 171.432C274.84 171.432 273.544 171.084 272.392 170.388C271.24 169.668 270.316 168.624 269.62 167.256C268.948 165.864 268.612 164.208 268.612 162.288C268.612 160.416 268.948 158.796 269.62 157.428C270.292 156.06 271.204 155.016 272.356 154.296C273.532 153.552 274.84 153.18 276.28 153.18C278.296 153.18 279.928 153.936 281.176 155.448V146.988H287.656V171H281.176V169.164ZM281.176 160.056C280.888 159.696 280.48 159.42 279.952 159.228C279.448 159.012 278.956 158.904 278.476 158.904C277.564 158.904 276.796 159.216 276.172 159.84C275.548 160.44 275.236 161.256 275.236 162.288C275.236 163.344 275.548 164.184 276.172 164.808C276.796 165.408 277.564 165.708 278.476 165.708C278.932 165.708 279.424 165.6 279.952 165.384C280.48 165.168 280.888 164.88 281.176 164.52V160.056ZM291.245 153.612H297.725V155.592C298.277 154.944 299.057 154.38 300.065 153.9C301.097 153.42 302.093 153.18 303.053 153.18V159.372C302.693 159.252 302.201 159.192 301.577 159.192C300.809 159.192 300.053 159.3 299.309 159.516C298.589 159.708 298.061 160.008 297.725 160.416V171H291.245V153.612ZM304.085 162.288C304.085 160.608 304.481 159.072 305.273 157.68C306.089 156.288 307.217 155.196 308.657 154.404C310.097 153.588 311.729 153.18 313.553 153.18C315.257 153.18 316.793 153.576 318.161 154.368C319.553 155.16 320.633 156.3 321.401 157.788C322.193 159.252 322.589 160.98 322.589 162.972V164.304H310.781C310.973 164.928 311.393 165.456 312.041 165.888C312.713 166.296 313.565 166.5 314.597 166.5C315.317 166.5 316.037 166.392 316.757 166.176C317.501 165.936 318.089 165.636 318.521 165.276L321.185 169.272C320.369 169.968 319.277 170.508 317.909 170.892C316.541 171.252 315.161 171.432 313.769 171.432C311.945 171.432 310.301 171.072 308.837 170.352C307.373 169.608 306.209 168.552 305.345 167.184C304.505 165.792 304.085 164.16 304.085 162.288ZM313.553 158.112C312.689 158.112 312.029 158.328 311.573 158.76C311.141 159.168 310.853 159.648 310.709 160.2H316.433C316.313 159.672 316.025 159.192 315.569 158.76C315.137 158.328 314.465 158.112 313.553 158.112ZM334.864 169.344C334.384 169.968 333.652 170.472 332.668 170.856C331.708 171.24 330.688 171.432 329.608 171.432C328.672 171.432 327.748 171.228 326.836 170.82C325.924 170.388 325.156 169.74 324.532 168.876C323.932 168.012 323.632 166.956 323.632 165.708C323.632 163.764 324.22 162.384 325.396 161.568C326.596 160.752 328 160.344 329.608 160.344C330.76 160.344 331.804 160.512 332.74 160.848C333.7 161.184 334.408 161.652 334.864 162.252V160.272C334.864 159.648 334.576 159.132 334 158.724C333.448 158.316 332.656 158.112 331.624 158.112C330.808 158.112 329.968 158.268 329.104 158.58C328.264 158.868 327.496 159.276 326.8 159.804L324.604 155.808C325.708 154.92 326.992 154.26 328.456 153.828C329.944 153.396 331.396 153.18 332.812 153.18C335.308 153.18 337.348 153.732 338.932 154.836C340.54 155.94 341.344 157.824 341.344 160.488V171H334.864V169.344ZM334.864 165.312C334.648 165.024 334.3 164.796 333.82 164.628C333.34 164.46 332.836 164.376 332.308 164.376C331.684 164.376 331.144 164.496 330.688 164.736C330.256 164.952 330.04 165.312 330.04 165.816C330.04 166.32 330.256 166.68 330.688 166.896C331.144 167.112 331.684 167.22 332.308 167.22C332.836 167.22 333.34 167.136 333.82 166.968C334.3 166.8 334.648 166.572 334.864 166.284V165.312ZM367.141 160.848C367.141 160.272 366.973 159.804 366.637 159.444C366.325 159.084 365.833 158.904 365.161 158.904C364.537 158.904 364.021 159.036 363.613 159.3C363.205 159.564 362.833 159.888 362.497 160.272V171H356.017V160.848C356.017 160.272 355.861 159.804 355.549 159.444C355.237 159.084 354.733 158.904 354.037 158.904C353.413 158.904 352.897 159.036 352.489 159.3C352.105 159.564 351.745 159.888 351.409 160.272V171H344.929V153.612H351.409V155.592C351.865 155.016 352.621 154.476 353.677 153.972C354.733 153.444 355.897 153.18 357.169 153.18C359.761 153.18 361.429 154.2 362.173 156.24C362.725 155.4 363.541 154.68 364.621 154.08C365.725 153.48 366.937 153.18 368.257 153.18C369.913 153.18 371.221 153.612 372.181 154.476C373.141 155.34 373.621 156.648 373.621 158.4V171H367.141V160.848ZM378.354 164.412C379.05 164.964 380.034 165.468 381.306 165.924C382.578 166.38 383.682 166.608 384.618 166.608C385.77 166.608 386.346 166.356 386.346 165.852C386.346 165.612 386.154 165.444 385.77 165.348C385.386 165.228 384.762 165.108 383.898 164.988C382.482 164.796 381.27 164.556 380.262 164.268C379.278 163.956 378.402 163.392 377.634 162.576C376.866 161.76 376.482 160.608 376.482 159.12C376.482 158.064 376.782 157.08 377.382 156.168C378.006 155.256 378.906 154.536 380.082 154.008C381.258 153.456 382.65 153.18 384.258 153.18C385.674 153.18 387.018 153.384 388.29 153.792C389.562 154.176 390.726 154.716 391.782 155.412L389.406 159.624C388.806 159.144 388.038 158.724 387.102 158.364C386.166 158.004 385.23 157.824 384.294 157.824C383.838 157.824 383.454 157.896 383.142 158.04C382.83 158.184 382.674 158.352 382.674 158.544C382.674 158.76 382.806 158.916 383.07 159.012C383.334 159.084 383.946 159.192 384.906 159.336C386.346 159.552 387.582 159.816 388.614 160.128C389.646 160.44 390.558 161.028 391.35 161.892C392.142 162.732 392.538 163.92 392.538 165.456C392.538 166.608 392.202 167.64 391.53 168.552C390.882 169.44 389.934 170.148 388.686 170.676C387.438 171.18 385.974 171.432 384.294 171.432C382.71 171.432 381.126 171.192 379.542 170.712C377.958 170.208 376.698 169.56 375.762 168.768L378.354 164.412Z" fill="black"/>
<path d="M395.773 145.581H394.162V143.997H399.193V145.581H397.591V150H395.773V145.581ZM405.149 146.391L403.808 150H402.998L401.657 146.391V150H399.839V143.997H402.35L403.403 146.877L404.456 143.997H406.967V150H405.149V146.391Z" fill="black"/>
<defs>
<linearGradient id="paint0_linear_114_59" x1="292" y1="73" x2="372" y2="73" gradientUnits="userSpaceOnUse">
<stop stop-color="#163BF3"/>
<stop offset="1" stop-color="#0C114D"/>
</linearGradient>
<linearGradient id="paint1_linear_114_59" x1="372" y1="113" x2="292" y2="113" gradientUnits="userSpaceOnUse">
<stop stop-color="#C98600"/>
<stop offset="1" stop-color="#FBBE2E"/>
</linearGradient>
<linearGradient id="paint2_linear_114_59" x1="332" y1="53" x2="332" y2="133" gradientUnits="userSpaceOnUse">
<stop stop-color="#C9A400"/>
<stop offset="1" stop-color="#5B3100"/>
</linearGradient>
</defs>
</svg>
