<svg width="663" height="220" viewBox="0 0 663 220" fill="none" xmlns="http://www.w3.org/2000/svg">
<path d="M372 93C372 70.9086 354.091 53 332 53C309.909 53 292 70.9086 292 93L332 77L372 93Z" fill="url(#paint0_linear_114_59)"/>
<path d="M292 93C292 115.091 309.909 133 332 133C354.091 133 372 115.091 372 93L332 109L292 93Z" fill="url(#paint1_linear_114_59)"/>
<path d="M332 77L292 93L332 109L372 93L332 77Z" fill="url(#paint2_linear_114_59)"/>
<path d="M281.176 174.164C279.832 175.676 278.2 176.432 276.28 176.432C274.84 176.432 273.544 176.084 272.392 175.388C271.24 174.668 270.316 173.624 269.62 172.256C268.948 170.864 268.612 169.208 268.612 167.288C268.612 165.416 268.948 163.796 269.62 162.428C270.292 161.06 271.204 160.016 272.356 159.296C273.532 158.552 274.84 158.18 276.28 158.18C278.296 158.18 279.928 158.936 281.176 160.448V151.988H287.656V176H281.176V174.164ZM281.176 165.056C280.888 164.696 280.48 164.42 279.952 164.228C279.448 164.012 278.956 163.904 278.476 163.904C277.564 163.904 276.796 164.216 276.172 164.84C275.548 165.44 275.236 166.256 275.236 167.288C275.236 168.344 275.548 169.184 276.172 169.808C276.796 170.408 277.564 170.708 278.476 170.708C278.932 170.708 279.424 170.6 279.952 170.384C280.48 170.168 280.888 169.88 281.176 169.52V165.056ZM291.245 158.612H297.725V160.592C298.277 159.944 299.057 159.38 300.065 158.9C301.097 158.42 302.093 158.18 303.053 158.18V164.372C302.693 164.252 302.201 164.192 301.577 164.192C300.809 164.192 300.053 164.3 299.309 164.516C298.589 164.708 298.061 165.008 297.725 165.416V176H291.245V158.612ZM304.085 167.288C304.085 165.608 304.481 164.072 305.273 162.68C306.089 161.288 307.217 160.196 308.657 159.404C310.097 158.588 311.729 158.18 313.553 158.18C315.257 158.18 316.793 158.576 318.161 159.368C319.553 160.16 320.633 161.3 321.401 162.788C322.193 164.252 322.589 165.98 322.589 167.972V169.304H310.781C310.973 169.928 311.393 170.456 312.041 170.888C312.713 171.296 313.565 171.5 314.597 171.5C315.317 171.5 316.037 171.392 316.757 171.176C317.501 170.936 318.089 170.636 318.521 170.276L321.185 174.272C320.369 174.968 319.277 175.508 317.909 175.892C316.541 176.252 315.161 176.432 313.769 176.432C311.945 176.432 310.301 176.072 308.837 175.352C307.373 174.608 306.209 173.552 305.345 172.184C304.505 170.792 304.085 169.16 304.085 167.288ZM313.553 163.112C312.689 163.112 312.029 163.328 311.573 163.76C311.141 164.168 310.853 164.648 310.709 165.2H316.433C316.313 164.672 316.025 164.192 315.569 163.76C315.137 163.328 314.465 163.112 313.553 163.112ZM334.864 174.344C334.384 174.968 333.652 175.472 332.668 175.856C331.708 176.24 330.688 176.432 329.608 176.432C328.672 176.432 327.748 176.228 326.836 175.82C325.924 175.388 325.156 174.74 324.532 173.876C323.932 173.012 323.632 171.956 323.632 170.708C323.632 168.764 324.22 167.384 325.396 166.568C326.596 165.752 328 165.344 329.608 165.344C330.76 165.344 331.804 165.512 332.74 165.848C333.7 166.184 334.408 166.652 334.864 167.252V165.272C334.864 164.648 334.576 164.132 334 163.724C333.448 163.316 332.656 163.112 331.624 163.112C330.808 163.112 329.968 163.268 329.104 163.58C328.264 163.868 327.496 164.276 326.8 164.804L324.604 160.808C325.708 159.92 326.992 159.26 328.456 158.828C329.944 158.396 331.396 158.18 332.812 158.18C335.308 158.18 337.348 158.732 338.932 159.836C340.54 160.94 341.344 162.824 341.344 165.488V176H334.864V174.344ZM334.864 170.312C334.648 170.024 334.3 169.796 333.82 169.628C333.34 169.46 332.836 169.376 332.308 169.376C331.684 169.376 331.144 169.496 330.688 169.736C330.256 169.952 330.04 170.312 330.04 170.816C330.04 171.32 330.256 171.68 330.688 171.896C331.144 172.112 331.684 172.22 332.308 172.22C332.836 172.22 333.34 172.136 333.82 171.968C334.3 171.8 334.648 171.572 334.864 171.284V170.312ZM367.141 165.848C367.141 165.272 366.973 164.804 366.637 164.444C366.325 164.084 365.833 163.904 365.161 163.904C364.537 163.904 364.021 164.036 363.613 164.3C363.205 164.564 362.833 164.888 362.497 165.272V176H356.017V165.848C356.017 165.272 355.861 164.804 355.549 164.444C355.237 164.084 354.733 163.904 354.037 163.904C353.413 163.904 352.897 164.036 352.489 164.3C352.105 164.564 351.745 164.888 351.409 165.272V176H344.929V158.612H351.409V160.592C351.865 160.016 352.621 159.476 353.677 158.972C354.733 158.444 355.897 158.18 357.169 158.18C359.761 158.18 361.429 159.2 362.173 161.24C362.725 160.4 363.541 159.68 364.621 159.08C365.725 158.48 366.937 158.18 368.257 158.18C369.913 158.18 371.221 158.612 372.181 159.476C373.141 160.34 373.621 161.648 373.621 163.4V176H367.141V165.848ZM378.354 169.412C379.05 169.964 380.034 170.468 381.306 170.924C382.578 171.38 383.682 171.608 384.618 171.608C385.77 171.608 386.346 171.356 386.346 170.852C386.346 170.612 386.154 170.444 385.77 170.348C385.386 170.228 384.762 170.108 383.898 169.988C382.482 169.796 381.27 169.556 380.262 169.268C379.278 168.956 378.402 168.392 377.634 167.576C376.866 166.76 376.482 165.608 376.482 164.12C376.482 163.064 376.782 162.08 377.382 161.168C378.006 160.256 378.906 159.536 380.082 159.008C381.258 158.456 382.65 158.18 384.258 158.18C385.674 158.18 387.018 158.384 388.29 158.792C389.562 159.176 390.726 159.716 391.782 160.412L389.406 164.624C388.806 164.144 388.038 163.724 387.102 163.364C386.166 163.004 385.23 162.824 384.294 162.824C383.838 162.824 383.454 162.896 383.142 163.04C382.83 163.184 382.674 163.352 382.674 163.544C382.674 163.76 382.806 163.916 383.07 164.012C383.334 164.084 383.946 164.192 384.906 164.336C386.346 164.552 387.582 164.816 388.614 165.128C389.646 165.44 390.558 166.028 391.35 166.892C392.142 167.732 392.538 168.92 392.538 170.456C392.538 171.608 392.202 172.64 391.53 173.552C390.882 174.44 389.934 175.148 388.686 175.676C387.438 176.18 385.974 176.432 384.294 176.432C382.71 176.432 381.126 176.192 379.542 175.712C377.958 175.208 376.698 174.56 375.762 173.768L378.354 169.412Z" fill="black"/>
<path d="M395.773 150.581H394.162V148.997H399.193V150.581H397.591V155H395.773V150.581ZM405.149 151.391L403.808 155H402.998L401.657 151.391V155H399.839V148.997H402.35L403.403 151.877L404.456 148.997H406.967V155H405.149V151.391Z" fill="black"/>
<defs>
<linearGradient id="paint0_linear_114_59" x1="292" y1="73" x2="372" y2="73" gradientUnits="userSpaceOnUse">
<stop stop-color="#163BF3"/>
<stop offset="1" stop-color="#0C114D"/>
</linearGradient>
<linearGradient id="paint1_linear_114_59" x1="372" y1="113" x2="292" y2="113" gradientUnits="userSpaceOnUse">
<stop stop-color="#C98600"/>
<stop offset="1" stop-color="#FBBE2E"/>
</linearGradient>
<linearGradient id="paint2_linear_114_59" x1="332" y1="53" x2="332" y2="133" gradientUnits="userSpaceOnUse">
<stop stop-color="#C9A400"/>
<stop offset="1" stop-color="#5B3100"/>
</linearGradient>
</defs>
</svg>
