<svg width="663" height="220" viewBox="0 0 663 220" fill="none" xmlns="http://www.w3.org/2000/svg">
<rect width="663" height="220" fill="white"/>
<path d="M372 93C372 70.9086 354.091 53 332 53C309.909 53 292 70.9086 292 93L332 77L372 93Z" fill="url(#paint0_linear_18_133)"/>
<path d="M292 93C292 115.091 309.909 133 332 133C354.091 133 372 115.091 372 93L332 109L292 93Z" fill="url(#paint1_linear_18_133)"/>
<path d="M332 77L292 93L332 109L372 93L332 77Z" fill="url(#paint2_linear_18_133)"/>
<path d="M267.288 181H274.632V148.984H267.288V160.552C265.416 158.248 262.968 157.24 260.424 157.24C254.616 157.24 250.152 161.8 250.152 169.384C250.152 177.256 254.712 181.576 260.424 181.576C263.016 181.576 265.368 180.52 267.288 178.312V181ZM267.288 172.936C266.328 174.184 264.408 175.048 262.824 175.048C259.896 175.048 257.736 172.84 257.736 169.384C257.736 165.928 259.896 163.768 262.824 163.768C264.408 163.768 266.328 164.584 267.288 165.832V172.936ZM280.047 181H287.439V166.312C288.399 164.968 290.943 164.152 292.863 164.152C293.631 164.152 294.255 164.248 294.687 164.392V157.24C291.903 157.24 288.975 158.872 287.439 160.744V157.816H280.047V181ZM296.511 169.384C296.511 176.92 302.031 181.576 309.183 181.576C312.735 181.576 316.575 180.568 318.879 178.504L315.759 173.896C314.463 175.048 312.159 175.864 310.095 175.864C306.639 175.864 304.623 173.896 304.191 171.736H320.703V170.152C320.703 162.28 315.711 157.24 308.847 157.24C301.599 157.24 296.511 162.664 296.511 169.384ZM308.847 162.952C312.255 162.952 313.455 165.304 313.647 166.936H304.095C304.383 165.256 305.631 162.952 308.847 162.952ZM338.024 181H345.416V166.504C345.416 159.304 340.184 157.24 334.616 157.24C331.064 157.24 327.08 158.296 324.104 160.84L326.744 165.496C328.616 163.912 331.016 163.048 333.32 163.048C336.296 163.048 338.024 164.392 338.024 166.408V169.336C336.632 167.608 333.896 166.648 330.824 166.648C327.272 166.648 322.856 168.328 322.856 173.944C322.856 179.176 327.272 181.576 330.824 181.576C333.8 181.576 336.584 180.424 338.024 178.696V181ZM338.024 175.048C337.256 176.152 335.528 176.728 333.896 176.728C331.928 176.728 330.2 175.864 330.2 174.04C330.2 172.216 331.928 171.352 333.896 171.352C335.528 171.352 337.256 171.928 338.024 172.984V175.048ZM380.014 181H387.358V164.2C387.358 159.448 384.67 157.24 380.398 157.24C376.75 157.24 373.726 159.352 372.382 161.368C371.422 158.632 369.118 157.24 365.806 157.24C362.158 157.24 359.182 159.304 358.174 160.648V157.816H350.782V181H358.174V166.024C358.942 165.064 360.334 163.768 362.302 163.768C364.558 163.768 365.374 165.112 365.374 166.888V181H372.766V166.024C373.486 165.064 374.926 163.768 376.942 163.768C379.15 163.768 380.014 165.112 380.014 166.888V181ZM390.814 178.024C393.262 180.184 397.534 181.576 401.662 181.576C408.334 181.576 412.222 178.312 412.222 173.896C412.222 167.608 406.366 166.648 402.43 165.928C399.982 165.496 398.734 165.304 398.734 164.296C398.734 163.384 399.934 162.664 401.662 162.664C404.446 162.664 407.086 163.864 408.478 165.208L411.31 160.312C408.814 158.488 405.502 157.24 401.614 157.24C395.182 157.24 391.678 160.792 391.678 164.872C391.678 170.872 397.246 171.784 401.182 172.408C403.39 172.792 405.166 173.128 405.166 174.232C405.166 175.288 404.254 176.008 402.046 176.008C399.31 176.008 395.614 174.472 393.886 172.936L390.814 178.024Z" fill="black"/>
<path d="M416.364 152H418.788V146.108H420.924V143.996H414.216V146.108H416.364V152ZM428.865 152H431.289V143.996H427.941L426.537 147.836L425.133 143.996H421.785V152H424.209V147.188L425.997 152H427.077L428.865 147.188V152Z" fill="black"/>
<defs>
<linearGradient id="paint0_linear_18_133" x1="292" y1="73" x2="372" y2="73" gradientUnits="userSpaceOnUse">
<stop stop-color="#163BF3"/>
<stop offset="1" stop-color="#0C114D"/>
</linearGradient>
<linearGradient id="paint1_linear_18_133" x1="372" y1="113" x2="292" y2="113" gradientUnits="userSpaceOnUse">
<stop stop-color="#C98600"/>
<stop offset="1" stop-color="#FBBE2E"/>
</linearGradient>
<linearGradient id="paint2_linear_18_133" x1="332" y1="53" x2="332" y2="133" gradientUnits="userSpaceOnUse">
<stop stop-color="#C98600"/>
<stop offset="1" stop-color="#5B3100"/>
</linearGradient>
</defs>
</svg>
