<svg width="663" height="220" viewBox="0 0 663 220" fill="none" xmlns="http://www.w3.org/2000/svg">
<path d="M372 93C372 70.9086 354.091 53 332 53C309.909 53 292 70.9086 292 93L332 77L372 93Z" fill="url(#paint0_linear_133_556)"/>
<path d="M292 93C292 115.091 309.909 133 332 133C354.091 133 372 115.091 372 93L332 109L292 93Z" fill="url(#paint1_linear_133_556)"/>
<path d="M332 77L292 93L332 109L372 93L332 77Z" fill="url(#paint2_linear_133_556)"/>
<path d="M282.176 174.164C280.832 175.676 279.2 176.432 277.28 176.432C275.84 176.432 274.544 176.084 273.392 175.388C272.24 174.668 271.316 173.624 270.62 172.256C269.948 170.864 269.612 169.208 269.612 167.288C269.612 165.416 269.948 163.796 270.62 162.428C271.292 161.06 272.204 160.016 273.356 159.296C274.532 158.552 275.84 158.18 277.28 158.18C279.296 158.18 280.928 158.936 282.176 160.448V151.988H288.656V176H282.176V174.164ZM282.176 165.056C281.888 164.696 281.48 164.42 280.952 164.228C280.448 164.012 279.956 163.904 279.476 163.904C278.564 163.904 277.796 164.216 277.172 164.84C276.548 165.44 276.236 166.256 276.236 167.288C276.236 168.344 276.548 169.184 277.172 169.808C277.796 170.408 278.564 170.708 279.476 170.708C279.932 170.708 280.424 170.6 280.952 170.384C281.48 170.168 281.888 169.88 282.176 169.52V165.056ZM292.245 158.612H298.725V160.592C299.277 159.944 300.057 159.38 301.065 158.9C302.097 158.42 303.093 158.18 304.053 158.18V164.372C303.693 164.252 303.201 164.192 302.577 164.192C301.809 164.192 301.053 164.3 300.309 164.516C299.589 164.708 299.061 165.008 298.725 165.416V176H292.245V158.612ZM305.085 167.288C305.085 165.608 305.481 164.072 306.273 162.68C307.089 161.288 308.217 160.196 309.657 159.404C311.097 158.588 312.729 158.18 314.553 158.18C316.257 158.18 317.793 158.576 319.161 159.368C320.553 160.16 321.633 161.3 322.401 162.788C323.193 164.252 323.589 165.98 323.589 167.972V169.304H311.781C311.973 169.928 312.393 170.456 313.041 170.888C313.713 171.296 314.565 171.5 315.597 171.5C316.317 171.5 317.037 171.392 317.757 171.176C318.501 170.936 319.089 170.636 319.521 170.276L322.185 174.272C321.369 174.968 320.277 175.508 318.909 175.892C317.541 176.252 316.161 176.432 314.769 176.432C312.945 176.432 311.301 176.072 309.837 175.352C308.373 174.608 307.209 173.552 306.345 172.184C305.505 170.792 305.085 169.16 305.085 167.288ZM314.553 163.112C313.689 163.112 313.029 163.328 312.573 163.76C312.141 164.168 311.853 164.648 311.709 165.2H317.433C317.313 164.672 317.025 164.192 316.569 163.76C316.137 163.328 315.465 163.112 314.553 163.112ZM335.864 174.344C335.384 174.968 334.652 175.472 333.668 175.856C332.708 176.24 331.688 176.432 330.608 176.432C329.672 176.432 328.748 176.228 327.836 175.82C326.924 175.388 326.156 174.74 325.532 173.876C324.932 173.012 324.632 171.956 324.632 170.708C324.632 168.764 325.22 167.384 326.396 166.568C327.596 165.752 329 165.344 330.608 165.344C331.76 165.344 332.804 165.512 333.74 165.848C334.7 166.184 335.408 166.652 335.864 167.252V165.272C335.864 164.648 335.576 164.132 335 163.724C334.448 163.316 333.656 163.112 332.624 163.112C331.808 163.112 330.968 163.268 330.104 163.58C329.264 163.868 328.496 164.276 327.8 164.804L325.604 160.808C326.708 159.92 327.992 159.26 329.456 158.828C330.944 158.396 332.396 158.18 333.812 158.18C336.308 158.18 338.348 158.732 339.932 159.836C341.54 160.94 342.344 162.824 342.344 165.488V176H335.864V174.344ZM335.864 170.312C335.648 170.024 335.3 169.796 334.82 169.628C334.34 169.46 333.836 169.376 333.308 169.376C332.684 169.376 332.144 169.496 331.688 169.736C331.256 169.952 331.04 170.312 331.04 170.816C331.04 171.32 331.256 171.68 331.688 171.896C332.144 172.112 332.684 172.22 333.308 172.22C333.836 172.22 334.34 172.136 334.82 171.968C335.3 171.8 335.648 171.572 335.864 171.284V170.312ZM368.141 165.848C368.141 165.272 367.973 164.804 367.637 164.444C367.325 164.084 366.833 163.904 366.161 163.904C365.537 163.904 365.021 164.036 364.613 164.3C364.205 164.564 363.833 164.888 363.497 165.272V176H357.017V165.848C357.017 165.272 356.861 164.804 356.549 164.444C356.237 164.084 355.733 163.904 355.037 163.904C354.413 163.904 353.897 164.036 353.489 164.3C353.105 164.564 352.745 164.888 352.409 165.272V176H345.929V158.612H352.409V160.592C352.865 160.016 353.621 159.476 354.677 158.972C355.733 158.444 356.897 158.18 358.169 158.18C360.761 158.18 362.429 159.2 363.173 161.24C363.725 160.4 364.541 159.68 365.621 159.08C366.725 158.48 367.937 158.18 369.257 158.18C370.913 158.18 372.221 158.612 373.181 159.476C374.141 160.34 374.621 161.648 374.621 163.4V176H368.141V165.848ZM379.354 169.412C380.05 169.964 381.034 170.468 382.306 170.924C383.578 171.38 384.682 171.608 385.618 171.608C386.77 171.608 387.346 171.356 387.346 170.852C387.346 170.612 387.154 170.444 386.77 170.348C386.386 170.228 385.762 170.108 384.898 169.988C383.482 169.796 382.27 169.556 381.262 169.268C380.278 168.956 379.402 168.392 378.634 167.576C377.866 166.76 377.482 165.608 377.482 164.12C377.482 163.064 377.782 162.08 378.382 161.168C379.006 160.256 379.906 159.536 381.082 159.008C382.258 158.456 383.65 158.18 385.258 158.18C386.674 158.18 388.018 158.384 389.29 158.792C390.562 159.176 391.726 159.716 392.782 160.412L390.406 164.624C389.806 164.144 389.038 163.724 388.102 163.364C387.166 163.004 386.23 162.824 385.294 162.824C384.838 162.824 384.454 162.896 384.142 163.04C383.83 163.184 383.674 163.352 383.674 163.544C383.674 163.76 383.806 163.916 384.07 164.012C384.334 164.084 384.946 164.192 385.906 164.336C387.346 164.552 388.582 164.816 389.614 165.128C390.646 165.44 391.558 166.028 392.35 166.892C393.142 167.732 393.538 168.92 393.538 170.456C393.538 171.608 393.202 172.64 392.53 173.552C391.882 174.44 390.934 175.148 389.686 175.676C388.438 176.18 386.974 176.432 385.294 176.432C383.71 176.432 382.126 176.192 380.542 175.712C378.958 175.208 377.698 174.56 376.762 173.768L379.354 169.412Z" fill="white"/>
<path d="M397.773 150.581H396.162V148.997H401.193V150.581H399.591V155H397.773V150.581ZM407.149 151.391L405.808 155H404.998L403.657 151.391V155H401.839V148.997H404.35L405.403 151.877L406.456 148.997H408.967V155H407.149V151.391Z" fill="white"/>
<defs>
<linearGradient id="paint0_linear_133_556" x1="292" y1="73" x2="372" y2="73" gradientUnits="userSpaceOnUse">
<stop stop-color="#163BF3"/>
<stop offset="1" stop-color="#0C114D"/>
</linearGradient>
<linearGradient id="paint1_linear_133_556" x1="372" y1="113" x2="292" y2="113" gradientUnits="userSpaceOnUse">
<stop stop-color="#C98600"/>
<stop offset="1" stop-color="#FBBE2E"/>
</linearGradient>
<linearGradient id="paint2_linear_133_556" x1="332" y1="53" x2="332" y2="133" gradientUnits="userSpaceOnUse">
<stop stop-color="#C9A400"/>
<stop offset="1" stop-color="#5B3100"/>
</linearGradient>
</defs>
</svg>
