<svg width="663" height="220" viewBox="0 0 663 220" fill="none" xmlns="http://www.w3.org/2000/svg">
<path d="M372 93C372 70.9086 354.091 53 332 53C309.909 53 292 70.9086 292 93L332 77L372 93Z" fill="url(#paint0_linear_133_556)"/>
<path d="M292 93C292 115.091 309.909 133 332 133C354.091 133 372 115.091 372 93L332 109L292 93Z" fill="url(#paint1_linear_133_556)"/>
<path d="M332 77L292 93L332 109L372 93L332 77Z" fill="url(#paint2_linear_133_556)"/>
<path d="M282.176 169.164C280.832 170.676 279.2 171.432 277.28 171.432C275.84 171.432 274.544 171.084 273.392 170.388C272.24 169.668 271.316 168.624 270.62 167.256C269.948 165.864 269.612 164.208 269.612 162.288C269.612 160.416 269.948 158.796 270.62 157.428C271.292 156.06 272.204 155.016 273.356 154.296C274.532 153.552 275.84 153.18 277.28 153.18C279.296 153.18 280.928 153.936 282.176 155.448V146.988H288.656V171H282.176V169.164ZM282.176 160.056C281.888 159.696 281.48 159.42 280.952 159.228C280.448 159.012 279.956 158.904 279.476 158.904C278.564 158.904 277.796 159.216 277.172 159.84C276.548 160.44 276.236 161.256 276.236 162.288C276.236 163.344 276.548 164.184 277.172 164.808C277.796 165.408 278.564 165.708 279.476 165.708C279.932 165.708 280.424 165.6 280.952 165.384C281.48 165.168 281.888 164.88 282.176 164.52V160.056ZM292.245 153.612H298.725V155.592C299.277 154.944 300.057 154.38 301.065 153.9C302.097 153.42 303.093 153.18 304.053 153.18V159.372C303.693 159.252 303.201 159.192 302.577 159.192C301.809 159.192 301.053 159.3 300.309 159.516C299.589 159.708 299.061 160.008 298.725 160.416V171H292.245V153.612ZM305.085 162.288C305.085 160.608 305.481 159.072 306.273 157.68C307.089 156.288 308.217 155.196 309.657 154.404C311.097 153.588 312.729 153.18 314.553 153.18C316.257 153.18 317.793 153.576 319.161 154.368C320.553 155.16 321.633 156.3 322.401 157.788C323.193 159.252 323.589 160.98 323.589 162.972V164.304H311.781C311.973 164.928 312.393 165.456 313.041 165.888C313.713 166.296 314.565 166.5 315.597 166.5C316.317 166.5 317.037 166.392 317.757 166.176C318.501 165.936 319.089 165.636 319.521 165.276L322.185 169.272C321.369 169.968 320.277 170.508 318.909 170.892C317.541 171.252 316.161 171.432 314.769 171.432C312.945 171.432 311.301 171.072 309.837 170.352C308.373 169.608 307.209 168.552 306.345 167.184C305.505 165.792 305.085 164.16 305.085 162.288ZM314.553 158.112C313.689 158.112 313.029 158.328 312.573 158.76C312.141 159.168 311.853 159.648 311.709 160.2H317.433C317.313 159.672 317.025 159.192 316.569 158.76C316.137 158.328 315.465 158.112 314.553 158.112ZM335.864 169.344C335.384 169.968 334.652 170.472 333.668 170.856C332.708 171.24 331.688 171.432 330.608 171.432C329.672 171.432 328.748 171.228 327.836 170.82C326.924 170.388 326.156 169.74 325.532 168.876C324.932 168.012 324.632 166.956 324.632 165.708C324.632 163.764 325.22 162.384 326.396 161.568C327.596 160.752 329 160.344 330.608 160.344C331.76 160.344 332.804 160.512 333.74 160.848C334.7 161.184 335.408 161.652 335.864 162.252V160.272C335.864 159.648 335.576 159.132 335 158.724C334.448 158.316 333.656 158.112 332.624 158.112C331.808 158.112 330.968 158.268 330.104 158.58C329.264 158.868 328.496 159.276 327.8 159.804L325.604 155.808C326.708 154.92 327.992 154.26 329.456 153.828C330.944 153.396 332.396 153.18 333.812 153.18C336.308 153.18 338.348 153.732 339.932 154.836C341.54 155.94 342.344 157.824 342.344 160.488V171H335.864V169.344ZM335.864 165.312C335.648 165.024 335.3 164.796 334.82 164.628C334.34 164.46 333.836 164.376 333.308 164.376C332.684 164.376 332.144 164.496 331.688 164.736C331.256 164.952 331.04 165.312 331.04 165.816C331.04 166.32 331.256 166.68 331.688 166.896C332.144 167.112 332.684 167.22 333.308 167.22C333.836 167.22 334.34 167.136 334.82 166.968C335.3 166.8 335.648 166.572 335.864 166.284V165.312ZM368.141 160.848C368.141 160.272 367.973 159.804 367.637 159.444C367.325 159.084 366.833 158.904 366.161 158.904C365.537 158.904 365.021 159.036 364.613 159.3C364.205 159.564 363.833 159.888 363.497 160.272V171H357.017V160.848C357.017 160.272 356.861 159.804 356.549 159.444C356.237 159.084 355.733 158.904 355.037 158.904C354.413 158.904 353.897 159.036 353.489 159.3C353.105 159.564 352.745 159.888 352.409 160.272V171H345.929V153.612H352.409V155.592C352.865 155.016 353.621 154.476 354.677 153.972C355.733 153.444 356.897 153.18 358.169 153.18C360.761 153.18 362.429 154.2 363.173 156.24C363.725 155.4 364.541 154.68 365.621 154.08C366.725 153.48 367.937 153.18 369.257 153.18C370.913 153.18 372.221 153.612 373.181 154.476C374.141 155.34 374.621 156.648 374.621 158.4V171H368.141V160.848ZM379.354 164.412C380.05 164.964 381.034 165.468 382.306 165.924C383.578 166.38 384.682 166.608 385.618 166.608C386.77 166.608 387.346 166.356 387.346 165.852C387.346 165.612 387.154 165.444 386.77 165.348C386.386 165.228 385.762 165.108 384.898 164.988C383.482 164.796 382.27 164.556 381.262 164.268C380.278 163.956 379.402 163.392 378.634 162.576C377.866 161.76 377.482 160.608 377.482 159.12C377.482 158.064 377.782 157.08 378.382 156.168C379.006 155.256 379.906 154.536 381.082 154.008C382.258 153.456 383.65 153.18 385.258 153.18C386.674 153.18 388.018 153.384 389.29 153.792C390.562 154.176 391.726 154.716 392.782 155.412L390.406 159.624C389.806 159.144 389.038 158.724 388.102 158.364C387.166 158.004 386.23 157.824 385.294 157.824C384.838 157.824 384.454 157.896 384.142 158.04C383.83 158.184 383.674 158.352 383.674 158.544C383.674 158.76 383.806 158.916 384.07 159.012C384.334 159.084 384.946 159.192 385.906 159.336C387.346 159.552 388.582 159.816 389.614 160.128C390.646 160.44 391.558 161.028 392.35 161.892C393.142 162.732 393.538 163.92 393.538 165.456C393.538 166.608 393.202 167.64 392.53 168.552C391.882 169.44 390.934 170.148 389.686 170.676C388.438 171.18 386.974 171.432 385.294 171.432C383.71 171.432 382.126 171.192 380.542 170.712C378.958 170.208 377.698 169.56 376.762 168.768L379.354 164.412Z" fill="white"/>
<path d="M397.773 145.581H396.162V143.997H401.193V145.581H399.591V150H397.773V145.581ZM407.149 146.391L405.808 150H404.998L403.657 146.391V150H401.839V143.997H404.35L405.403 146.877L406.456 143.997H408.967V150H407.149V146.391Z" fill="white"/>
<defs>
<linearGradient id="paint0_linear_133_556" x1="292" y1="73" x2="372" y2="73" gradientUnits="userSpaceOnUse">
<stop stop-color="#163BF3"/>
<stop offset="1" stop-color="#0C114D"/>
</linearGradient>
<linearGradient id="paint1_linear_133_556" x1="372" y1="113" x2="292" y2="113" gradientUnits="userSpaceOnUse">
<stop stop-color="#C98600"/>
<stop offset="1" stop-color="#FBBE2E"/>
</linearGradient>
<linearGradient id="paint2_linear_133_556" x1="332" y1="53" x2="332" y2="133" gradientUnits="userSpaceOnUse">
<stop stop-color="#C9A400"/>
<stop offset="1" stop-color="#5B3100"/>
</linearGradient>
</defs>
</svg>
