<svg width="400" height="220" viewBox="0 0 400 220" fill="none" xmlns="http://www.w3.org/2000/svg">
<path d="M234 94C234 71.9086 216.091 54 194 54C171.909 54 154 71.9086 154 94L194 78L234 94Z" fill="url(#paint0_linear_133_556)"/>
<path d="M154 94C154 116.091 171.909 134 194 134C216.091 134 234 116.091 234 94L194 110L154 94Z" fill="url(#paint1_linear_133_556)"/>
<path d="M194 78L154 94L194 110L234 94L194 78Z" fill="url(#paint2_linear_133_556)"/>
<path d="M136.372 184.858C134.804 186.622 132.9 187.504 130.66 187.504C128.98 187.504 127.468 187.098 126.124 186.286C124.78 185.446 123.702 184.228 122.89 182.632C122.106 181.008 121.714 179.076 121.714 176.836C121.714 174.652 122.106 172.762 122.89 171.166C123.674 169.57 124.738 168.352 126.082 167.512C127.454 166.644 128.98 166.21 130.66 166.21C133.012 166.21 134.916 167.092 136.372 168.856V158.986H143.932V187H136.372V184.858ZM136.372 174.232C136.036 173.812 135.56 173.49 134.944 173.266C134.356 173.014 133.782 172.888 133.222 172.888C132.158 172.888 131.262 173.252 130.534 173.98C129.806 174.68 129.442 175.632 129.442 176.836C129.442 178.068 129.806 179.048 130.534 179.776C131.262 180.476 132.158 180.826 133.222 180.826C133.754 180.826 134.328 180.7 134.944 180.448C135.56 180.196 136.036 179.86 136.372 179.44V174.232ZM148.12 166.714H155.68V169.024C156.324 168.268 157.234 167.61 158.41 167.05C159.614 166.49 160.776 166.21 161.896 166.21V173.434C161.476 173.294 160.902 173.224 160.174 173.224C159.278 173.224 158.396 173.35 157.528 173.602C156.688 173.826 156.072 174.176 155.68 174.652V187H148.12V166.714ZM163.099 176.836C163.099 174.876 163.561 173.084 164.485 171.46C165.437 169.836 166.753 168.562 168.433 167.638C170.113 166.686 172.017 166.21 174.145 166.21C176.133 166.21 177.925 166.672 179.521 167.596C181.145 168.52 182.405 169.85 183.301 171.586C184.225 173.294 184.687 175.31 184.687 177.634V179.188H170.911C171.135 179.916 171.625 180.532 172.381 181.036C173.165 181.512 174.159 181.75 175.363 181.75C176.203 181.75 177.043 181.624 177.883 181.372C178.751 181.092 179.437 180.742 179.941 180.322L183.049 184.984C182.097 185.796 180.823 186.426 179.227 186.874C177.631 187.294 176.021 187.504 174.397 187.504C172.269 187.504 170.351 187.084 168.643 186.244C166.935 185.376 165.577 184.144 164.569 182.548C163.589 180.924 163.099 179.02 163.099 176.836ZM174.145 171.964C173.137 171.964 172.367 172.216 171.835 172.72C171.331 173.196 170.995 173.756 170.827 174.4H177.505C177.365 173.784 177.029 173.224 176.497 172.72C175.993 172.216 175.209 171.964 174.145 171.964ZM199.007 185.068C198.447 185.796 197.593 186.384 196.445 186.832C195.325 187.28 194.135 187.504 192.875 187.504C191.783 187.504 190.705 187.266 189.641 186.79C188.577 186.286 187.681 185.53 186.953 184.522C186.253 183.514 185.903 182.282 185.903 180.826C185.903 178.558 186.589 176.948 187.961 175.996C189.361 175.044 190.999 174.568 192.875 174.568C194.219 174.568 195.437 174.764 196.529 175.156C197.649 175.548 198.475 176.094 199.007 176.794V174.484C199.007 173.756 198.671 173.154 197.999 172.678C197.355 172.202 196.431 171.964 195.227 171.964C194.275 171.964 193.295 172.146 192.287 172.51C191.307 172.846 190.411 173.322 189.599 173.938L187.037 169.276C188.325 168.24 189.823 167.47 191.531 166.966C193.267 166.462 194.961 166.21 196.613 166.21C199.525 166.21 201.905 166.854 203.753 168.142C205.629 169.43 206.567 171.628 206.567 174.736V187H199.007V185.068ZM199.007 180.364C198.755 180.028 198.349 179.762 197.789 179.566C197.229 179.37 196.641 179.272 196.025 179.272C195.297 179.272 194.667 179.412 194.135 179.692C193.631 179.944 193.379 180.364 193.379 180.952C193.379 181.54 193.631 181.96 194.135 182.212C194.667 182.464 195.297 182.59 196.025 182.59C196.641 182.59 197.229 182.492 197.789 182.296C198.349 182.1 198.755 181.834 199.007 181.498V180.364ZM236.664 175.156C236.664 174.484 236.468 173.938 236.076 173.518C235.712 173.098 235.138 172.888 234.354 172.888C233.626 172.888 233.024 173.042 232.548 173.35C232.072 173.658 231.638 174.036 231.246 174.484V187H223.686V175.156C223.686 174.484 223.504 173.938 223.14 173.518C222.776 173.098 222.188 172.888 221.376 172.888C220.648 172.888 220.046 173.042 219.57 173.35C219.122 173.658 218.702 174.036 218.31 174.484V187H210.75V166.714H218.31V169.024C218.842 168.352 219.724 167.722 220.956 167.134C222.188 166.518 223.546 166.21 225.03 166.21C228.054 166.21 230 167.4 230.868 169.78C231.512 168.8 232.464 167.96 233.724 167.26C235.012 166.56 236.426 166.21 237.966 166.21C239.898 166.21 241.424 166.714 242.544 167.722C243.664 168.73 244.224 170.256 244.224 172.3V187H236.664V175.156ZM249.746 179.314C250.558 179.958 251.706 180.546 253.19 181.078C254.674 181.61 255.962 181.876 257.054 181.876C258.398 181.876 259.07 181.582 259.07 180.994C259.07 180.714 258.846 180.518 258.398 180.406C257.95 180.266 257.222 180.126 256.214 179.986C254.562 179.762 253.148 179.482 251.972 179.146C250.824 178.782 249.802 178.124 248.906 177.172C248.01 176.22 247.562 174.876 247.562 173.14C247.562 171.908 247.912 170.76 248.612 169.696C249.34 168.632 250.39 167.792 251.762 167.176C253.134 166.532 254.758 166.21 256.634 166.21C258.286 166.21 259.854 166.448 261.338 166.924C262.822 167.372 264.18 168.002 265.412 168.814L262.64 173.728C261.94 173.168 261.044 172.678 259.952 172.258C258.86 171.838 257.768 171.628 256.676 171.628C256.144 171.628 255.696 171.712 255.332 171.88C254.968 172.048 254.786 172.244 254.786 172.468C254.786 172.72 254.94 172.902 255.248 173.014C255.556 173.098 256.27 173.224 257.39 173.392C259.07 173.644 260.512 173.952 261.716 174.316C262.92 174.68 263.984 175.366 264.908 176.374C265.832 177.354 266.294 178.74 266.294 180.532C266.294 181.876 265.902 183.08 265.118 184.144C264.362 185.18 263.256 186.006 261.8 186.622C260.344 187.21 258.636 187.504 256.676 187.504C254.828 187.504 252.98 187.224 251.132 186.664C249.284 186.076 247.814 185.32 246.722 184.396L249.746 179.314Z" fill="white"/>
<path d="M268.773 156.581H267.162V154.997H272.193V156.581H270.591V161H268.773V156.581ZM278.149 157.391L276.808 161H275.998L274.657 157.391V161H272.839V154.997H275.35L276.403 157.877L277.456 154.997H279.967V161H278.149V157.391Z" fill="white"/>
<defs>
<linearGradient id="paint0_linear_133_556" x1="154" y1="74" x2="234" y2="74" gradientUnits="userSpaceOnUse">
<stop stop-color="#163BF3"/>
<stop offset="1" stop-color="#0C114D"/>
</linearGradient>
<linearGradient id="paint1_linear_133_556" x1="234" y1="114" x2="154" y2="114" gradientUnits="userSpaceOnUse">
<stop stop-color="#C98600"/>
<stop offset="1" stop-color="#FBBE2E"/>
</linearGradient>
<linearGradient id="paint2_linear_133_556" x1="194" y1="54" x2="194" y2="134" gradientUnits="userSpaceOnUse">
<stop stop-color="#C9A400"/>
<stop offset="1" stop-color="#5B3100"/>
</linearGradient>
</defs>
</svg>
